<svg width="210" height="70" viewBox="0 0 210 70" fill="none" xmlns="http://www.w3.org/2000/svg">
<path d="M20.3594 23.25V46H16.4375L6.23438 29.7031V46H2.3125V23.25H6.23438L16.4688 39.5781V23.25H20.3594ZM34.8281 42.0156V29.0938H38.6094V46H35.0469L34.8281 42.0156ZM35.3594 38.5L36.625 38.4688C36.625 39.6042 36.5 40.651 36.25 41.6094C36 42.5573 35.6146 43.3854 35.0938 44.0938C34.5729 44.7917 33.9062 45.3385 33.0938 45.7344C32.2812 46.1198 31.3073 46.3125 30.1719 46.3125C29.349 46.3125 28.5938 46.1927 27.9062 45.9531C27.2188 45.7135 26.625 45.3438 26.125 44.8438C25.6354 44.3438 25.2552 43.6927 24.9844 42.8906C24.7135 42.0885 24.5781 41.1302 24.5781 40.0156V29.0938H28.3438V40.0469C28.3438 40.6615 28.4167 41.1771 28.5625 41.5938C28.7083 42 28.9062 42.3281 29.1562 42.5781C29.4062 42.8281 29.6979 43.0052 30.0312 43.1094C30.3646 43.2135 30.7188 43.2656 31.0938 43.2656C32.1667 43.2656 33.0104 43.0573 33.625 42.6406C34.25 42.2135 34.6927 41.6406 34.9531 40.9219C35.224 40.2031 35.3594 39.3958 35.3594 38.5ZM51.9531 41.4219C51.9531 41.0469 51.8594 40.7083 51.6719 40.4062C51.4844 40.0938 51.125 39.8125 50.5938 39.5625C50.0729 39.3125 49.3021 39.0833 48.2812 38.875C47.3854 38.6771 46.5625 38.4427 45.8125 38.1719C45.0729 37.8906 44.4375 37.5521 43.9062 37.1562C43.375 36.7604 42.9635 36.2917 42.6719 35.75C42.3802 35.2083 42.2344 34.5833 42.2344 33.875C42.2344 33.1875 42.3854 32.5365 42.6875 31.9219C42.9896 31.3073 43.4219 30.7656 43.9844 30.2969C44.5469 29.8281 45.2292 29.4583 46.0312 29.1875C46.8438 28.9167 47.75 28.7812 48.75 28.7812C50.1667 28.7812 51.3802 29.0208 52.3906 29.5C53.4115 29.9688 54.1927 30.6094 54.7344 31.4219C55.276 32.224 55.5469 33.1302 55.5469 34.1406H51.7812C51.7812 33.6927 51.6667 33.276 51.4375 32.8906C51.2188 32.4948 50.8854 32.1771 50.4375 31.9375C49.9896 31.6875 49.4271 31.5625 48.75 31.5625C48.1042 31.5625 47.5677 31.6667 47.1406 31.875C46.724 32.0729 46.4115 32.3333 46.2031 32.6562C46.0052 32.9792 45.9062 33.3333 45.9062 33.7188C45.9062 34 45.9583 34.2552 46.0625 34.4844C46.1771 34.7031 46.3646 34.9062 46.625 35.0938C46.8854 35.2708 47.2396 35.4375 47.6875 35.5938C48.1458 35.75 48.7188 35.901 49.4062 36.0469C50.6979 36.3177 51.8073 36.6667 52.7344 37.0938C53.6719 37.5104 54.3906 38.0521 54.8906 38.7188C55.3906 39.375 55.6406 40.2083 55.6406 41.2188C55.6406 41.9688 55.4792 42.6562 55.1562 43.2812C54.8438 43.8958 54.3854 44.4323 53.7812 44.8906C53.1771 45.3385 52.4531 45.6875 51.6094 45.9375C50.776 46.1875 49.8385 46.3125 48.7969 46.3125C47.2656 46.3125 45.9688 46.0417 44.9062 45.5C43.8438 44.9479 43.0365 44.2448 42.4844 43.3906C41.9427 42.526 41.6719 41.6302 41.6719 40.7031H45.3125C45.3542 41.401 45.5469 41.9583 45.8906 42.375C46.2448 42.7812 46.6823 43.0781 47.2031 43.2656C47.7344 43.4427 48.2812 43.5312 48.8438 43.5312C49.5208 43.5312 50.0885 43.4427 50.5469 43.2656C51.0052 43.0781 51.3542 42.8281 51.5938 42.5156C51.8333 42.1927 51.9531 41.8281 51.9531 41.4219ZM68.4688 42.6094V34.5469C68.4688 33.9427 68.3594 33.4219 68.1406 32.9844C67.9219 32.5469 67.5885 32.2083 67.1406 31.9688C66.7031 31.7292 66.151 31.6094 65.4844 31.6094C64.8698 31.6094 64.3385 31.7135 63.8906 31.9219C63.4427 32.1302 63.0938 32.4115 62.8438 32.7656C62.5938 33.1198 62.4688 33.5208 62.4688 33.9688H58.7188C58.7188 33.3021 58.8802 32.6562 59.2031 32.0312C59.526 31.4062 59.9948 30.849 60.6094 30.3594C61.224 29.8698 61.9583 29.4844 62.8125 29.2031C63.6667 28.9219 64.625 28.7812 65.6875 28.7812C66.9583 28.7812 68.0833 28.9948 69.0625 29.4219C70.0521 29.849 70.8281 30.4948 71.3906 31.3594C71.9635 32.2135 72.25 33.2865 72.25 34.5781V42.0938C72.25 42.8646 72.3021 43.5573 72.4062 44.1719C72.5208 44.776 72.6823 45.3021 72.8906 45.75V46H69.0312C68.8542 45.5938 68.7135 45.0781 68.6094 44.4531C68.5156 43.8177 68.4688 43.2031 68.4688 42.6094ZM69.0156 35.7188L69.0469 38.0469H66.3438C65.6458 38.0469 65.0312 38.1146 64.5 38.25C63.9688 38.375 63.526 38.5625 63.1719 38.8125C62.8177 39.0625 62.5521 39.3646 62.375 39.7188C62.1979 40.0729 62.1094 40.474 62.1094 40.9219C62.1094 41.3698 62.2135 41.7812 62.4219 42.1562C62.6302 42.5208 62.9323 42.8073 63.3281 43.0156C63.7344 43.224 64.224 43.3281 64.7969 43.3281C65.5677 43.3281 66.2396 43.1719 66.8125 42.8594C67.3958 42.5365 67.8542 42.1458 68.1875 41.6875C68.5208 41.2188 68.6979 40.776 68.7188 40.3594L69.9375 42.0312C69.8125 42.4583 69.599 42.9167 69.2969 43.4062C68.9948 43.8958 68.599 44.3646 68.1094 44.8125C67.6302 45.25 67.0521 45.6094 66.375 45.8906C65.7083 46.1719 64.9375 46.3125 64.0625 46.3125C62.9583 46.3125 61.974 46.0938 61.1094 45.6562C60.2448 45.2083 59.5677 44.6094 59.0781 43.8594C58.5885 43.099 58.3438 42.2396 58.3438 41.2812C58.3438 40.3854 58.5104 39.5938 58.8438 38.9062C59.1875 38.2083 59.6875 37.625 60.3438 37.1562C61.0104 36.6875 61.8229 36.3333 62.7812 36.0938C63.7396 35.8438 64.8333 35.7188 66.0625 35.7188H69.0156ZM79.9219 32.7031V46H76.1562V29.0938H79.7031L79.9219 32.7031ZM79.25 36.9219L78.0312 36.9062C78.0417 35.7083 78.2083 34.6094 78.5312 33.6094C78.8646 32.6094 79.3229 31.75 79.9062 31.0312C80.5 30.3125 81.2083 29.7604 82.0312 29.375C82.8542 28.9792 83.7708 28.7812 84.7812 28.7812C85.5938 28.7812 86.3281 28.8958 86.9844 29.125C87.651 29.3438 88.2188 29.7031 88.6875 30.2031C89.1667 30.7031 89.5312 31.3542 89.7812 32.1562C90.0312 32.9479 90.1562 33.9219 90.1562 35.0781V46H86.375V35.0625C86.375 34.25 86.2552 33.6094 86.0156 33.1406C85.7865 32.6615 85.4479 32.3229 85 32.125C84.5625 31.9167 84.0156 31.8125 83.3594 31.8125C82.7135 31.8125 82.1354 31.9479 81.625 32.2188C81.1146 32.4896 80.6823 32.8594 80.3281 33.3281C79.9844 33.7969 79.7188 34.3385 79.5312 34.9531C79.3438 35.5677 79.25 36.224 79.25 36.9219ZM101.75 29.0938V31.8438H92.2188V29.0938H101.75ZM94.9688 24.9531H98.7344V41.3281C98.7344 41.849 98.8073 42.25 98.9531 42.5312C99.1094 42.8021 99.3229 42.9844 99.5938 43.0781C99.8646 43.1719 100.182 43.2188 100.547 43.2188C100.807 43.2188 101.057 43.2031 101.297 43.1719C101.536 43.1406 101.729 43.1094 101.875 43.0781L101.891 45.9531C101.578 46.0469 101.214 46.1302 100.797 46.2031C100.391 46.276 99.9219 46.3125 99.3906 46.3125C98.526 46.3125 97.7604 46.1615 97.0938 45.8594C96.4271 45.5469 95.9062 45.0417 95.5312 44.3438C95.1562 43.6458 94.9688 42.7188 94.9688 41.5625V24.9531ZM114.188 42.6094V34.5469C114.188 33.9427 114.078 33.4219 113.859 32.9844C113.641 32.5469 113.307 32.2083 112.859 31.9688C112.422 31.7292 111.87 31.6094 111.203 31.6094C110.589 31.6094 110.057 31.7135 109.609 31.9219C109.161 32.1302 108.812 32.4115 108.562 32.7656C108.312 33.1198 108.188 33.5208 108.188 33.9688H104.438C104.438 33.3021 104.599 32.6562 104.922 32.0312C105.245 31.4062 105.714 30.849 106.328 30.3594C106.943 29.8698 107.677 29.4844 108.531 29.2031C109.385 28.9219 110.344 28.7812 111.406 28.7812C112.677 28.7812 113.802 28.9948 114.781 29.4219C115.771 29.849 116.547 30.4948 117.109 31.3594C117.682 32.2135 117.969 33.2865 117.969 34.5781V42.0938C117.969 42.8646 118.021 43.5573 118.125 44.1719C118.24 44.776 118.401 45.3021 118.609 45.75V46H114.75C114.573 45.5938 114.432 45.0781 114.328 44.4531C114.234 43.8177 114.188 43.2031 114.188 42.6094ZM114.734 35.7188L114.766 38.0469H112.062C111.365 38.0469 110.75 38.1146 110.219 38.25C109.688 38.375 109.245 38.5625 108.891 38.8125C108.536 39.0625 108.271 39.3646 108.094 39.7188C107.917 40.0729 107.828 40.474 107.828 40.9219C107.828 41.3698 107.932 41.7812 108.141 42.1562C108.349 42.5208 108.651 42.8073 109.047 43.0156C109.453 43.224 109.943 43.3281 110.516 43.3281C111.286 43.3281 111.958 43.1719 112.531 42.8594C113.115 42.5365 113.573 42.1458 113.906 41.6875C114.24 41.2188 114.417 40.776 114.438 40.3594L115.656 42.0312C115.531 42.4583 115.318 42.9167 115.016 43.4062C114.714 43.8958 114.318 44.3646 113.828 44.8125C113.349 45.25 112.771 45.6094 112.094 45.8906C111.427 46.1719 110.656 46.3125 109.781 46.3125C108.677 46.3125 107.693 46.0938 106.828 45.6562C105.964 45.2083 105.286 44.6094 104.797 43.8594C104.307 43.099 104.062 42.2396 104.062 41.2812C104.062 40.3854 104.229 39.5938 104.562 38.9062C104.906 38.2083 105.406 37.625 106.062 37.1562C106.729 36.6875 107.542 36.3333 108.5 36.0938C109.458 35.8438 110.552 35.7188 111.781 35.7188H114.734ZM125.688 32.3125V46H121.922V29.0938H125.516L125.688 32.3125ZM130.859 28.9844L130.828 32.4844C130.599 32.4427 130.349 32.4115 130.078 32.3906C129.818 32.3698 129.557 32.3594 129.297 32.3594C128.651 32.3594 128.083 32.4531 127.594 32.6406C127.104 32.8177 126.693 33.0781 126.359 33.4219C126.036 33.7552 125.786 34.1615 125.609 34.6406C125.432 35.1198 125.328 35.6562 125.297 36.25L124.438 36.3125C124.438 35.25 124.542 34.2656 124.75 33.3594C124.958 32.4531 125.271 31.6562 125.688 30.9688C126.115 30.2812 126.646 29.7448 127.281 29.3594C127.927 28.974 128.672 28.7812 129.516 28.7812C129.745 28.7812 129.99 28.8021 130.25 28.8438C130.521 28.8854 130.724 28.9323 130.859 28.9844ZM142.188 42.6094V34.5469C142.188 33.9427 142.078 33.4219 141.859 32.9844C141.641 32.5469 141.307 32.2083 140.859 31.9688C140.422 31.7292 139.87 31.6094 139.203 31.6094C138.589 31.6094 138.057 31.7135 137.609 31.9219C137.161 32.1302 136.812 32.4115 136.562 32.7656C136.312 33.1198 136.188 33.5208 136.188 33.9688H132.438C132.438 33.3021 132.599 32.6562 132.922 32.0312C133.245 31.4062 133.714 30.849 134.328 30.3594C134.943 29.8698 135.677 29.4844 136.531 29.2031C137.385 28.9219 138.344 28.7812 139.406 28.7812C140.677 28.7812 141.802 28.9948 142.781 29.4219C143.771 29.849 144.547 30.4948 145.109 31.3594C145.682 32.2135 145.969 33.2865 145.969 34.5781V42.0938C145.969 42.8646 146.021 43.5573 146.125 44.1719C146.24 44.776 146.401 45.3021 146.609 45.75V46H142.75C142.573 45.5938 142.432 45.0781 142.328 44.4531C142.234 43.8177 142.188 43.2031 142.188 42.6094ZM142.734 35.7188L142.766 38.0469H140.062C139.365 38.0469 138.75 38.1146 138.219 38.25C137.688 38.375 137.245 38.5625 136.891 38.8125C136.536 39.0625 136.271 39.3646 136.094 39.7188C135.917 40.0729 135.828 40.474 135.828 40.9219C135.828 41.3698 135.932 41.7812 136.141 42.1562C136.349 42.5208 136.651 42.8073 137.047 43.0156C137.453 43.224 137.943 43.3281 138.516 43.3281C139.286 43.3281 139.958 43.1719 140.531 42.8594C141.115 42.5365 141.573 42.1458 141.906 41.6875C142.24 41.2188 142.417 40.776 142.438 40.3594L143.656 42.0312C143.531 42.4583 143.318 42.9167 143.016 43.4062C142.714 43.8958 142.318 44.3646 141.828 44.8125C141.349 45.25 140.771 45.6094 140.094 45.8906C139.427 46.1719 138.656 46.3125 137.781 46.3125C136.677 46.3125 135.693 46.0938 134.828 45.6562C133.964 45.2083 133.286 44.6094 132.797 43.8594C132.307 43.099 132.062 42.2396 132.062 41.2812C132.062 40.3854 132.229 39.5938 132.562 38.9062C132.906 38.2083 133.406 37.625 134.062 37.1562C134.729 36.6875 135.542 36.3333 136.5 36.0938C137.458 35.8438 138.552 35.7188 139.781 35.7188H142.734Z" fill="white"/>
<path d="M154.234 23.25V46H150.312V23.25H154.234ZM163.516 33.2031V36.3125H153.234V33.2031H163.516ZM164.812 23.25V26.375H153.234V23.25H164.812ZM174.672 46.3125C173.422 46.3125 172.292 46.1094 171.281 45.7031C170.281 45.2865 169.427 44.7083 168.719 43.9688C168.021 43.2292 167.484 42.3594 167.109 41.3594C166.734 40.3594 166.547 39.2812 166.547 38.125V37.5C166.547 36.1771 166.74 34.9792 167.125 33.9062C167.51 32.8333 168.047 31.9167 168.734 31.1562C169.422 30.3854 170.234 29.7969 171.172 29.3906C172.109 28.9844 173.125 28.7812 174.219 28.7812C175.427 28.7812 176.484 28.9844 177.391 29.3906C178.297 29.7969 179.047 30.3698 179.641 31.1094C180.245 31.8385 180.693 32.7083 180.984 33.7188C181.286 34.7292 181.438 35.8438 181.438 37.0625V38.6719H168.375V35.9688H177.719V35.6719C177.698 34.9948 177.562 34.3594 177.312 33.7656C177.073 33.1719 176.703 32.6927 176.203 32.3281C175.703 31.9635 175.036 31.7812 174.203 31.7812C173.578 31.7812 173.021 31.9167 172.531 32.1875C172.052 32.4479 171.651 32.8281 171.328 33.3281C171.005 33.8281 170.755 34.4323 170.578 35.1406C170.411 35.8385 170.328 36.625 170.328 37.5V38.125C170.328 38.8646 170.427 39.5521 170.625 40.1875C170.833 40.8125 171.135 41.3594 171.531 41.8281C171.927 42.2969 172.406 42.6667 172.969 42.9375C173.531 43.1979 174.172 43.3281 174.891 43.3281C175.797 43.3281 176.604 43.1458 177.312 42.7812C178.021 42.4167 178.635 41.901 179.156 41.2344L181.141 43.1562C180.776 43.6875 180.302 44.1979 179.719 44.6875C179.135 45.1667 178.422 45.5573 177.578 45.8594C176.745 46.1615 175.776 46.3125 174.672 46.3125ZM193.859 41.4219C193.859 41.0469 193.766 40.7083 193.578 40.4062C193.391 40.0938 193.031 39.8125 192.5 39.5625C191.979 39.3125 191.208 39.0833 190.188 38.875C189.292 38.6771 188.469 38.4427 187.719 38.1719C186.979 37.8906 186.344 37.5521 185.812 37.1562C185.281 36.7604 184.87 36.2917 184.578 35.75C184.286 35.2083 184.141 34.5833 184.141 33.875C184.141 33.1875 184.292 32.5365 184.594 31.9219C184.896 31.3073 185.328 30.7656 185.891 30.2969C186.453 29.8281 187.135 29.4583 187.938 29.1875C188.75 28.9167 189.656 28.7812 190.656 28.7812C192.073 28.7812 193.286 29.0208 194.297 29.5C195.318 29.9688 196.099 30.6094 196.641 31.4219C197.182 32.224 197.453 33.1302 197.453 34.1406H193.688C193.688 33.6927 193.573 33.276 193.344 32.8906C193.125 32.4948 192.792 32.1771 192.344 31.9375C191.896 31.6875 191.333 31.5625 190.656 31.5625C190.01 31.5625 189.474 31.6667 189.047 31.875C188.63 32.0729 188.318 32.3333 188.109 32.6562C187.911 32.9792 187.812 33.3333 187.812 33.7188C187.812 34 187.865 34.2552 187.969 34.4844C188.083 34.7031 188.271 34.9062 188.531 35.0938C188.792 35.2708 189.146 35.4375 189.594 35.5938C190.052 35.75 190.625 35.901 191.312 36.0469C192.604 36.3177 193.714 36.6667 194.641 37.0938C195.578 37.5104 196.297 38.0521 196.797 38.7188C197.297 39.375 197.547 40.2083 197.547 41.2188C197.547 41.9688 197.385 42.6562 197.062 43.2812C196.75 43.8958 196.292 44.4323 195.688 44.8906C195.083 45.3385 194.359 45.6875 193.516 45.9375C192.682 46.1875 191.745 46.3125 190.703 46.3125C189.172 46.3125 187.875 46.0417 186.812 45.5C185.75 44.9479 184.943 44.2448 184.391 43.3906C183.849 42.526 183.578 41.6302 183.578 40.7031H187.219C187.26 41.401 187.453 41.9583 187.797 42.375C188.151 42.7812 188.589 43.0781 189.109 43.2656C189.641 43.4427 190.188 43.5312 190.75 43.5312C191.427 43.5312 191.995 43.4427 192.453 43.2656C192.911 43.0781 193.26 42.8281 193.5 42.5156C193.74 42.1927 193.859 41.8281 193.859 41.4219ZM208.594 29.0938V31.8438H199.062V29.0938H208.594ZM201.812 24.9531H205.578V41.3281C205.578 41.849 205.651 42.25 205.797 42.5312C205.953 42.8021 206.167 42.9844 206.438 43.0781C206.708 43.1719 207.026 43.2188 207.391 43.2188C207.651 43.2188 207.901 43.2031 208.141 43.1719C208.38 43.1406 208.573 43.1094 208.719 43.0781L208.734 45.9531C208.422 46.0469 208.057 46.1302 207.641 46.2031C207.234 46.276 206.766 46.3125 206.234 46.3125C205.37 46.3125 204.604 46.1615 203.938 45.8594C203.271 45.5469 202.75 45.0417 202.375 44.3438C202 43.6458 201.812 42.7188 201.812 41.5625V24.9531Z" fill="url(#paint0_linear_12_79)"/>
<defs>
<linearGradient id="paint0_linear_12_79" x1="150.082" y1="7" x2="218.3" y2="9.33032" gradientUnits="userSpaceOnUse">
<stop stop-color="#00A0F5"/>
<stop offset="1" stop-color="#00F7E6"/>
</linearGradient>
</defs>
</svg>
